<svg viewBox="0 0 281.85 132.27" height="132.27" width="281.85" xmlns="http://www.w3.org/2000/svg" data-name="uuid-ebf398c4-9dde-4871-a2cc-cfb5fb630026" id="uuid-843df8c6-35e1-4ada-b61e-88dcb039c778">
  <path fill="#231f20" d="m244.15,2.87c4.35,0,7.15.02,9.27.04,2.09.02,3.52.04,4.67.08,2.2.07,3.77.2,5.13.39,2.29.32,4.14.87,5.84,1.68,1.69.81,3.22,1.9,4.53,3.21,1.31,1.31,2.39,2.84,3.2,4.53.81,1.7,1.36,3.55,1.68,5.84.19,1.36.32,2.94.39,5.14.04,1.15.06,2.59.08,4.68.02,2.12.03,4.93.04,9.27v56.78c0,4.35-.02,7.15-.04,9.27-.02,2.09-.05,3.53-.08,4.68-.07,2.2-.2,3.78-.39,5.14-.32,2.29-.87,4.14-1.68,5.84-.81,1.69-1.89,3.22-3.2,4.53s-2.84,2.4-4.53,3.21c-1.7.82-3.55,1.36-5.84,1.68-1.36.19-2.93.32-5.13.39-1.15.04-2.58.06-4.67.08-2.12.02-4.92.03-9.27.04H37.7c-4.35,0-7.15-.02-9.27-.04-2.09-.02-3.52-.04-4.67-.08-2.2-.07-3.77-.2-5.13-.39-2.29-.32-4.14-.87-5.84-1.68-1.69-.81-3.22-1.9-4.53-3.21s-2.39-2.84-3.2-4.53c-.81-1.7-1.36-3.55-1.68-5.84-.19-1.36-.32-2.94-.39-5.14-.04-1.15-.06-2.59-.08-4.68-.02-2.12-.03-4.93-.04-9.27v-56.78c0-4.35.02-7.15.04-9.27.02-2.09.05-3.53.08-4.68.07-2.2.2-3.78.39-5.14.32-2.29.87-4.14,1.68-5.84.81-1.69,1.89-3.22,3.2-4.53s2.84-2.4,4.53-3.21c1.7-.82,3.55-1.36,5.84-1.68,1.36-.19,2.93-.32,5.13-.39,1.15-.04,2.58-.06,4.67-.08,2.12-.02,4.92-.03,9.27-.04h206.45m0-2.87H37.7c-4.36,0-7.17.02-9.29.04-2.07.02-3.53.04-4.74.08-2.22.07-3.9.2-5.44.42-2.56.36-4.68.98-6.68,1.94-1.98.95-3.77,2.22-5.32,3.77-1.55,1.55-2.81,3.34-3.76,5.32-.96,2-1.57,4.12-1.93,6.68-.22,1.54-.35,3.22-.42,5.45-.04,1.22-.07,2.68-.08,4.75-.02,2.1-.03,4.88-.04,9.29v56.78c0,4.42.02,7.2.04,9.3.02,2.06.04,3.53.08,4.75.07,2.22.2,3.9.42,5.45.36,2.56.97,4.68,1.93,6.68.95,1.98,2.22,3.77,3.76,5.32,1.55,1.55,3.34,2.82,5.32,3.77,2,.96,4.12,1.58,6.68,1.94,1.54.22,3.21.34,5.44.42,1.2.04,2.67.06,4.74.08,2.12.02,4.93.03,9.29.04h206.45c4.36,0,7.17-.02,9.29-.04,2.07-.02,3.53-.04,4.74-.08,2.22-.07,3.9-.2,5.44-.42,2.56-.36,4.68-.98,6.68-1.94,1.98-.95,3.77-2.22,5.32-3.77,1.55-1.55,2.81-3.34,3.76-5.32.96-2,1.57-4.12,1.93-6.68.22-1.54.35-3.22.42-5.45.04-1.22.07-2.69.08-4.75.02-2.09.03-4.87.04-9.29v-56.78c0-4.43-.02-7.21-.04-9.3-.02-2.06-.04-3.52-.08-4.75-.07-2.22-.2-3.9-.42-5.45-.36-2.56-.97-4.68-1.93-6.68-.95-1.98-2.22-3.77-3.76-5.32-1.55-1.55-3.34-2.82-5.32-3.77-2-.96-4.12-1.58-6.68-1.94-1.54-.22-3.21-.34-5.44-.42-1.2-.04-2.67-.06-4.74-.08-2.12-.02-4.93-.03-9.29-.04h0Z"></path>
  <path fill="#231f20" d="m116.63,60.97v-23.36h8.69c1.14,0,2.19.18,3.14.55.95.37,1.77.89,2.45,1.56s1.22,1.48,1.59,2.42c.38.94.57,1.98.57,3.12v.03c0,1.14-.19,2.19-.57,3.12-.38.94-.91,1.75-1.59,2.43-.69.68-1.5,1.21-2.45,1.58-.95.37-2,.56-3.14.56h-5.07v7.98h-3.63,0Zm7.79-20.3h-4.16v9.27h4.16c1.58,0,2.8-.4,3.67-1.21.87-.81,1.3-1.95,1.3-3.42v-.03c0-1.46-.43-2.59-1.3-3.4-.87-.81-2.09-1.21-3.67-1.21Z"></path>
  <path fill="#231f20" d="m136.42,60.97v-17.03h3.5v2.91h.08c.28-.99.76-1.78,1.44-2.36.68-.58,1.5-.87,2.48-.87.25,0,.48.02.69.05s.39.06.53.08v3.25c-.14-.05-.35-.1-.63-.14s-.59-.06-.94-.06c-1.12,0-2.01.35-2.66,1.05-.65.7-.98,1.69-.98,2.96v10.15h-3.51Z"></path>
  <path fill="#231f20" d="m154.9,61.31c-1.66,0-3.09-.36-4.3-1.08s-2.13-1.73-2.77-3.05-.96-2.87-.96-4.66v-.02c0-1.33.18-2.54.55-3.63s.9-2.03,1.59-2.82,1.52-1.39,2.48-1.81c.96-.42,2.04-.63,3.24-.63,1.6,0,2.97.36,4.12,1.07s2.03,1.71,2.65,2.99c.62,1.28.93,2.78.93,4.48v1.18h-12.06c.03,1.61.46,2.86,1.29,3.76.83.9,1.93,1.34,3.33,1.34.69,0,1.3-.11,1.83-.32.53-.22.97-.5,1.32-.86s.6-.74.74-1.17l.05-.13h3.32l-.03.18c-.14.68-.4,1.33-.79,1.94-.39.62-.89,1.17-1.51,1.65-.62.49-1.35.87-2.19,1.15-.84.28-1.77.42-2.81.42l-.02.02Zm-.16-14.83c-.76,0-1.44.17-2.06.5s-1.12.83-1.51,1.48-.64,1.45-.75,2.4h8.55c-.14-1.48-.59-2.58-1.36-3.3s-1.72-1.08-2.87-1.08h0Z"></path>
  <path fill="#231f20" d="m165.96,60.97v-17.03h3.5v2.64h.08c.37-.9.96-1.61,1.79-2.15s1.79-.81,2.91-.81c1.18,0,2.18.29,3,.87.83.58,1.41,1.41,1.74,2.48h.08c.44-1.04,1.14-1.85,2.08-2.45.94-.6,2.02-.9,3.23-.9,1.12,0,2.1.23,2.94.7s1.48,1.12,1.94,1.97c.46.84.69,1.83.69,2.98v11.7h-3.51v-10.86c0-1.11-.28-1.97-.85-2.58-.57-.61-1.37-.91-2.4-.91-.69,0-1.3.16-1.83.48s-.94.76-1.24,1.31c-.3.56-.45,1.2-.45,1.92v10.65h-3.43v-11.12c0-.99-.29-1.78-.87-2.36s-1.36-.87-2.35-.87c-.69,0-1.3.17-1.84.5s-.95.79-1.25,1.37c-.3.58-.45,1.23-.45,1.97v10.52h-3.5v-.02Z"></path>
  <path fill="#231f20" d="m196.02,41.32c-.38,0-.72-.09-1.03-.28-.31-.18-.55-.43-.74-.73s-.28-.64-.28-1,.09-.72.28-1.02.43-.54.74-.73c.31-.18.65-.27,1.03-.27s.74.09,1.04.27c.31.18.55.43.73.73s.27.64.27,1.02-.09.7-.27,1c-.18.3-.42.54-.73.73-.31.18-.66.28-1.04.28Zm-1.75,19.65v-17.03h3.5v17.03h-3.5Z"></path>
  <path fill="#231f20" d="m208,61.31c-1.24,0-2.3-.26-3.18-.77-.88-.51-1.55-1.24-2.01-2.19-.46-.94-.69-2.07-.69-3.38v-11.04h3.5v10.36c0,1.28.3,2.27.91,2.96s1.51,1.04,2.72,1.04c.82,0,1.53-.18,2.14-.55.6-.37,1.07-.88,1.41-1.55.33-.66.5-1.44.5-2.32v-9.94h3.51v17.03h-3.51v-2.56h-.08c-.44.85-1.1,1.55-1.97,2.09s-1.95.81-3.25.81h0Z"></path>
  <path fill="#231f20" d="m220.92,60.97v-17.03h3.5v2.64h.08c.37-.9.96-1.61,1.79-2.15s1.79-.81,2.91-.81c1.18,0,2.18.29,3,.87.83.58,1.41,1.41,1.74,2.48h.08c.44-1.04,1.14-1.85,2.08-2.45.94-.6,2.02-.9,3.23-.9,1.12,0,2.1.23,2.94.7s1.48,1.12,1.94,1.97c.46.84.69,1.83.69,2.98v11.7h-3.51v-10.86c0-1.11-.28-1.97-.85-2.58-.57-.61-1.37-.91-2.4-.91-.69,0-1.3.16-1.83.48s-.94.76-1.24,1.31c-.3.56-.45,1.2-.45,1.92v10.65h-3.43v-11.12c0-.99-.29-1.78-.87-2.36s-1.36-.87-2.35-.87c-.69,0-1.3.17-1.84.5s-.95.79-1.25,1.37c-.3.58-.45,1.23-.45,1.97v10.52h-3.5v-.02Z"></path>
  <path fill="#231f20" d="m116.63,95.5v-23.36h8.69c1.14,0,2.19.18,3.14.55.95.37,1.77.89,2.45,1.56s1.22,1.48,1.59,2.42c.38.94.57,1.98.57,3.12v.03c0,1.14-.19,2.19-.57,3.12-.38.94-.91,1.75-1.59,2.43-.69.68-1.5,1.21-2.45,1.58s-2,.56-3.14.56h-5.07v7.98h-3.63,0Zm7.79-20.3h-4.16v9.27h4.16c1.58,0,2.8-.4,3.67-1.21s1.3-1.95,1.3-3.42v-.03c0-1.46-.43-2.59-1.3-3.4-.87-.81-2.09-1.21-3.67-1.21Z"></path>
  <path fill="#231f20" d="m140.59,95.81c-1.13,0-2.13-.22-2.98-.65s-1.52-1.04-1.99-1.81c-.48-.78-.71-1.67-.71-2.69v-.03c0-1.48.55-2.65,1.65-3.53s2.66-1.37,4.68-1.49l4.63-.27v-1.28c0-.94-.29-1.68-.87-2.21s-1.42-.8-2.51-.8c-1.01,0-1.82.22-2.43.65s-.98.99-1.13,1.67l-.03.15h-3.3l.02-.18c.09-.98.42-1.86.99-2.64s1.37-1.39,2.38-1.85c1.01-.46,2.22-.69,3.61-.69s2.59.23,3.61.7,1.8,1.11,2.36,1.95.83,1.83.83,2.97v11.74h-3.51v-2.69h-.07c-.5.92-1.21,1.65-2.14,2.19s-1.95.81-3.08.81v-.02Zm-2.15-5.23c0,.74.28,1.34.85,1.77s1.32.66,2.26.66c.82,0,1.56-.17,2.21-.51.65-.34,1.17-.8,1.55-1.39s.57-1.25.57-1.98v-1.33l-4.16.26c-1.05.06-1.85.32-2.42.75-.57.44-.85,1.02-.85,1.74v.03h-.01Z"></path>
  <path fill="#231f20" d="m153.43,95.5v-17.03h3.5v2.91h.08c.28-.99.76-1.78,1.44-2.36.68-.58,1.5-.87,2.48-.87.25,0,.48.02.69.05.21.03.39.06.53.08v3.25c-.14-.05-.35-.1-.63-.14s-.59-.06-.94-.06c-1.12,0-2.01.35-2.66,1.05-.65.7-.98,1.69-.98,2.96v10.15h-3.51Z"></path>
  <path fill="#231f20" d="m172.27,95.84c-1.68,0-2.94-.38-3.76-1.14s-1.23-1.99-1.23-3.68v-9.76h-2.44v-2.78h2.44v-4.44h3.58v4.44h3.19v2.78h-3.19v9.55c0,.86.19,1.45.57,1.77s.94.48,1.68.48c.18,0,.35,0,.51-.02.16-.02.3-.03.43-.04v2.7c-.21.03-.46.06-.78.1-.31.03-.65.05-1,.05h0Z"></path>
  <path fill="#231f20" d="m177.76,95.5v-17.03h3.5v2.57h.08c.44-.86,1.1-1.56,1.97-2.1s1.95-.8,3.24-.8,2.31.26,3.19.77,1.54,1.24,2.01,2.19.7,2.07.7,3.38v11.02h-3.51v-10.36c0-1.28-.3-2.27-.9-2.96-.6-.69-1.51-1.04-2.73-1.04-.82,0-1.53.19-2.14.56-.6.37-1.07.89-1.41,1.55-.33.66-.5,1.44-.5,2.32v9.92h-3.5Z"></path>
  <path fill="#231f20" d="m203.74,95.84c-1.66,0-3.09-.36-4.3-1.08s-2.13-1.73-2.77-3.05-.96-2.87-.96-4.66v-.02c0-1.33.18-2.54.55-3.63s.9-2.03,1.59-2.82,1.52-1.39,2.48-1.81c.96-.42,2.04-.63,3.24-.63,1.6,0,2.97.36,4.12,1.07s2.03,1.71,2.65,2.99.93,2.78.93,4.48v1.18h-12.06c.03,1.61.46,2.86,1.29,3.76.83.9,1.93,1.34,3.33,1.34.69,0,1.3-.11,1.83-.32.53-.22.97-.5,1.32-.86s.6-.74.74-1.17l.05-.13h3.32l-.03.18c-.14.68-.4,1.33-.79,1.94-.39.62-.89,1.17-1.51,1.65-.62.49-1.35.87-2.19,1.15s-1.77.42-2.81.42l-.02.02Zm-.16-14.83c-.76,0-1.44.17-2.06.5s-1.12.83-1.51,1.48-.64,1.45-.75,2.4h8.55c-.14-1.48-.59-2.58-1.36-3.3s-1.72-1.08-2.87-1.08h0Z"></path>
  <path fill="#231f20" d="m214.8,95.5v-17.03h3.5v2.91h.08c.28-.99.76-1.78,1.44-2.36.68-.58,1.5-.87,2.48-.87.25,0,.48.02.69.05.21.03.39.06.53.08v3.25c-.14-.05-.35-.1-.63-.14s-.59-.06-.94-.06c-1.12,0-2.01.35-2.66,1.05-.65.7-.98,1.69-.98,2.96v10.15h-3.51Z"></path>
  <path fill="#231f20" d="m80.31,43.35c-5.88-.44-10.87,3.29-13.66,3.29s-7.18-3.19-11.8-3.1c-6.06.09-11.65,3.53-14.78,8.96-6.3,10.93-1.61,27.13,4.53,36,3,4.33,6.58,9.22,11.28,9.04,4.52-.18,6.24-2.93,11.71-2.93s7.01,2.93,11.79,2.84c4.87-.09,7.96-4.42,10.93-8.78,3.45-5.03,4.86-9.9,4.95-10.16-.11-.04-9.49-3.64-9.59-14.46-.08-9.04,7.38-13.39,7.72-13.6-4.24-6.24-10.78-6.93-13.09-7.1h0Z"></path>
  <path fill="#231f20" d="m76.69,37.5c2.5-3.02,4.18-7.22,3.72-11.41-3.6.14-7.94,2.39-10.52,5.41-2.31,2.67-4.34,6.95-3.79,11.05,4.01.31,8.1-2.04,10.59-5.06h0Z"></path>
</svg>